<?xml version="1.0" encoding="utf-8"?>
<!-- Generator: Adobe Illustrator 24.3.0, SVG Export Plug-In . SVG Version: 6.00 Build 0)  -->
<svg version="1.1" id="Слой_1" xmlns="http://www.w3.org/2000/svg" xmlns:xlink="http://www.w3.org/1999/xlink" x="0px" y="0px"
	 viewBox="0 0 1280 1151" style="enable-background:new 0 0 1280 1151;" xml:space="preserve">
<g transform="translate(0.000000,1151.000000) scale(0.100000,-0.100000)">
	<path d="M2840,11493.2c-140-9-237-22-345-44c-393-83-540-132-825-277c-280-141-499-301-731-533c-174-175-250-267-378-456
		c-109-162-149-231-244-420c-111-223-178-401-256-681c-39-139-74-259-77-268c-8-22,40-21,331,4c683,60,980,29,1138-119
		c79-74,92-107,91-231c-1-99-4-114-54-265c-45-134-53-172-54-235c0-55,4-84,18-110c37-70,86-119,151-151c57-28,72-31,132-27
		c78,4,142,31,192,80c85,83,98,191,41,338c-93,240-93,242-94,325c-1,69,3,88,27,138c61,124,190,210,370,248c137,29,377,35,637,15
		c118-9,256-19,305-22l90-7l32,179c60,331,65,466,20,556c-27,53-73,78-143,78c-63,0-131-20-261-76c-138-59-217-77-323-71
		c-114,6-184,34-259,102c-136,126-182,347-104,500c31,61,109,143,173,182c121,74,257,84,450,34c213-54,325-52,392,8
		c53,47,50,103-26,551c-116,679-112,664-181,666C3053,11505.2,2947,11500.2,2840,11493.2z"/>
	<path d="M3250,11503.2c0-2,11-38,24-79c37-111,62-238,96-481c17-121,40-278,51-350c49-300,1-425-181-471c-80-20-160-15-361,22
		c-257,47-374,24-459-91c-53-73-63-105-58-185c9-126,71-215,186-268c47-21,64-24,136-20c69,4,101,13,221,61c168,67,240,87,315,87
		c179,0,264-92,292-315c16-137-6-352-58-560c-10-38-13-70-8-74s119-23,254-42c313-43,532-48,646-12c87,28,145,68,179,127
		c50,86,44,139-30,261c-51,83-66,134-66,220c0,116,30,191,115,283c94,101,228,155,326,132c101-24,201-108,284-238
		c100-157,110-227,58-406c-18-60-32-126-32-146c0-74,66-115,205-126c59-5,690,43,801,61l31,5l5,268l6,267l-34,105
		c-62,194-198,446-378,700c-535,758-1297,1186-2240,1260C3443,11508.2,3250,11512.2,3250,11503.2z"/>
	<path d="M9235,11501.2c-733-34-1348-235-1826-595c-470-353-917-987-1046-1481c-24-94-27-119-27-307l-1-205l275,4
		c284,3,527-9,659-34c283-54,438-187,417-360c-3-28-24-102-47-165c-36-97-42-127-43-195c-1-70,3-88,29-139c53-104,137-153,248-144
		c108,9,253,103,296,191c28,58,27,126-5,227c-35,110-30,183,17,278c39,77,87,119,176,152c183,69,402,68,926-1c92-12,171-19,175-15
		c12,13,7,455-6,529c-27,143-78,232-150,262c-56,24-150,18-284-16c-100-26-133-31-186-26c-135,13-281,116-344,244
		c-40,81-48,178-23,272c48,187,172,319,327,351c72,14,119,7,278-40c214-65,283-62,329,14c37,61,55,237,71,706c6,162,13,341,16,398
		l6,102l-99-2C9339,11505.2,9268,11503.2,9235,11501.2z"/>
	<path d="M9610,11418.2c0-50-5-155-10-233c-6-78-15-277-20-442c-10-320-18-384-66-479c-72-144-181-173-419-112
		c-143,36-278,45-339,22c-60-23-117-80-152-152c-38-77-40-185-6-251s78-110,140-140c72-35,162-36,304-5c334,75,492-51,538-428
		c5-46,10-180,10-297v-212l33-5c123-20,377-60,452-71c356-54,566-34,666,66c54,54,58,89,24,209c-22,77-27,111-23,157
		c10,110,83,254,176,348c69,70,128,98,214,103c59,4,75,0,134-27c121-57,232-195,269-336c24-92,19-153-20-274c-22-66-35-128-35-160
		c0-125,99-210,287-247c94-19,332-21,453-5c74,10,419,88,429,97c8,7-43,268-85,429c-136,534-362,1001-675,1396
		c-107,135-356,384-487,488c-296,233-652,419-991,515c-178,51-396,94-566,111c-82,8-169,17-192,21l-43,5V11418.2z"/>
	<path d="M4709,9580.2c-52-34-91-82-126-158c-40-88-31-158,37-304c50-105,55-121,55-185c0-61-5-78-34-133c-63-117-171-188-332-219
		c-119-22-353-13-638,26c-124,17-232,31-242,31c-13,0-18-12-23-57c-24-223-78-784-83-856c-14-212,64-367,184-367c20,0,80,25,160,66
		c128,66,128,66,198,62c121-8,223-75,305-200c115-176,84-376-84-544c-98-98-163-128-276-129c-84,0-86,1-175,50
		c-118,67-139,75-184,75c-81,0-151-83-188-223c-23-84-22-343,1-537c10-80,23-193,30-253c7-59,16-110,19-113c3-4,131,14,284,39
		c153,26,334,52,403,58c189,17,347,1,441-47c161-81,193-200,128-483c-42-183-44-276-5-354c31-64,75-105,156-145
		c138-68,307-2,372,146c31,69,21,133-41,268c-65,142-76,195-56,281c47,202,196,344,406,389c109,23,367,14,563-20
		c82-14,153-26,156-26c13,0,20,154,21,450c1,231-3,311-15,369c-36,169-112,245-246,244c-52,0-87-8-175-42c-75-29-132-44-180-48
		c-128-10-255,39-346,134c-57,59-82,102-103,172c-21,73-20,135,4,212c56,183,209,333,365,357c77,12,105,8,252-39
		c144-46,204-50,271-16c117,57,205,191,245,372c21,94,22,122,20,445c-1,190-4,364-8,388l-6,42h-66c-35,0-165-12-286-27
		c-297-36-520-38-622-6c-180,57-218,145-155,358c58,195,34,292-101,420c-95,89-123,105-185,105C4766,9608.2,4743,9601.2,4709,9580.2
		z"/>
	<path d="M11082,9358.2c-91-41-200-195-210-298c-3-36,3-67,23-123c37-101,32-183-16-277c-57-112-167-171-361-194
		c-118-14-262-3-547,42c-107,17-234,34-282,38l-87,8l-7-94c-11-143,1-534,19-620c29-138,82-224,162-262c63-31,124-24,247,29
		c117,50,171,61,235,50c171-32,347-222,388-420c37-177-64-372-233-452c-61-29-77-32-158-31c-77,0-106,6-200,38
		c-183,63-258,60-335-15c-122-119-161-351-145-871c7-236,8-248,27-248c10,0,101,17,201,37c155,32,202,37,317,38c133,0,136-1,202-33
		c74-36,113-78,153-163c45-97,38-142-55-374c-28-69-32-89-28-150c3-60,9-80,38-128c47-79,95-110,175-115c35-2,79,1,99,8
		c79,26,175,156,192,257c4,25-2,87-15,160c-24,133-19,188,20,265s69,107,143,143c141,69,343,81,766,45c129-11,250-20,268-20
		c33,0,34,2,102,143c75,155,247,587,303,762c120,372,188,799,204,1275c6,205-4,579-17,599c-5,9-43,3-151-23c-222-53-303-66-444-73
		c-349-15-608,83-691,262c-35,73-32,144,12,290c44,149,43,212-5,310c-54,110-166,205-241,205
		C11136,9378.2,11106,9369.2,11082,9358.2z"/>
	<path d="M6470,8788.2c-63-4-117-8-119-9c-4-1,0-86,20-501c10-201,10-235-5-314c-21-111-47-188-97-289c-75-151-145-227-257-280
		c-95-45-180-48-282-12c-41,15-106,36-145,47c-66,18-74,18-134,4c-157-38-273-195-257-347c10-102,69-189,160-237c44-23,63-27,136-27
		c70,1,107,7,207,38c152,47,230,55,304,34c152-45,237-183,269-437c11-94,12-319,1-575c-4-93-4-174-1-178c11-13,1010-167,1087-167
		c91,0,163,15,205,44c29,19,33,28,36,74c2,32-7,93-24,159c-32,133-34,209-5,296c78,233,305,393,506,356c200-37,335-210,335-431
		c0-94-14-153-76-309c-67-169-72-225-24-269c46-43,120-64,220-63c74,0,139,14,505,108c231,58,423,110,427,113c3,4,1,72-4,152
		c-18,240-16,531,4,635c39,207,104,378,173,453c91,102,186,114,429,56c176-42,242-46,307-17c101,45,164,143,164,258
		c0,60-5,81-33,138c-42,85-127,178-194,211c-78,39-127,35-266-21c-153-61-227-68-306-29c-132,65-209,202-247,441
		c-6,39-13,208-16,378c-3,169-8,307-12,307c-3,0-39,7-80,15c-148,31-290,46-501,52c-388,10-568-37-601-160c-12-47-7-92,23-190
		c28-95,23-191-16-270c-35-73-127-172-197-214c-253-151-566-7-619,285c-15,85-6,140,43,247c52,116,68,184,56,230
		c-35,127-230,191-654,215C6713,8799.2,6652,8799.2,6470,8788.2z"/>
	<path d="M1784,6349.2c-59-27-119-85-145-138c-32-67-28-148,15-322c39-157,42-188,24-258c-16-66-86-136-155-156
		c-160-47-294-34-876,88c-70,15-130,25-133,23c-10-11,23-71,207-379c273-459,451-720,718-1054c362-452,982-1112,1371-1460
		c85-76,169-152,187-168l31-29l16,29c8,17,20,61,27,99c6,38,25,121,41,184c47,185,68,329,68,463c-1,142-21,342-39,375
		c-39,73-128,70-291-9c-107-51-117-54-189-54c-92,1-148,23-216,86c-106,98-149,201-143,344c3,79,7,99,37,160c46,94,137,185,228,227
		c58,27,80,32,143,32c66,0,87-5,170-41c175-76,232-79,302-15c82,74,103,153,102,377c-1,139-8,216-38,418c-20,137-36,259-36,273
		c0,21-4,24-37,24c-21,0-130-11-243-25c-493-61-693-37-818,100c-87,95-92,163-27,365c27,86,45,159,45,188c0,70-40,144-104,191
		C1922,6365.2,1854,6382.2,1784,6349.2z"/>
	<path d="M7912,6332.2c-74-37-181-145-218-219c-25-51-29-71-28-135c1-44,12-118,28-180c14-58,26-129,26-159c0-103-65-172-195-205
		c-76-20-250-21-370-1c-474,76-889,134-895,124c-4-6-10-142-14-302c-10-393,10-618,60-694c44-67,129-73,262-17c213,89,257,97,367,69
		c91-24,153-63,241-150c112-111,148-186,148-305c0-74-4-93-29-145c-78-157-272-269-434-252c-31,4-108,25-171,47
		c-128,46-232,61-293,41c-20-7-53-31-74-55c-102-116-114-310-48-796c14-102,25-202,25-222s3-39,8-41c7-4,138,8,367,33
		c136,15,328,7,447-20c142-31,226-82,253-155c24-62,15-105-50-244c-62-133-78-190-66-243c28-123,211-288,320-288
		c115,0,278,171,297,310c4,36-3,71-36,175c-51,161-55,233-15,300c42,73,115,118,260,160c140,40,231,45,465,23
		c291-27,652-100,904-183c60-20,110-34,112-32c3,2,7,130,11,283c9,417-14,635-79,763c-40,79-84,106-168,106c-56-1-94-17-254-110
		c-38-22-65-29-122-33c-65-4-80-1-128,22c-156,76-297,350-267,517c21,123,114,245,223,294c82,37,151,36,288-4c210-62,309-31,385,119
		c37,72,55,183,55,332c0,116-23,506-36,595l-5,31l-427-109c-378-96-437-109-512-109c-198,0-341,75-377,199c-22,76-9,148,57,316
		c83,211,95,278,64,369c-31,90-159,188-264,202C7974,6358.2,7955,6354.2,7912,6332.2z"/>
	<path d="M5399,5650.2c-113-30-198-104-251-219c-46-97-39-153,38-307c58-117,59-121,58-200c0-116-28-182-113-267
		c-49-49-81-71-124-87c-121-46-229-38-355,24c-140,69-231,196-239,337c-4,60,1,96,33,217c30,116,37,164,38,242l1,97l-34,35
		c-20,20-60,45-90,57c-103,39-179,36-581-20c-201-28-382-54-402-57c-47-7-47,1-9-265c55-381,61-554,26-721c-30-145-123-262-233-294
		c-70-21-108-15-260,36c-146,49-210,52-290,15c-122-57-173-129-180-256c-6-107,15-168,82-235c40-40,63-54,103-63c67-16,95-10,225,50
		c120,55,193,74,246,64c88-16,161-81,181-161c19-75,36-294,35-444c-1-111-8-178-28-285c-30-158-66-303-95-387c-14-41-16-58-8-58
		c7,0,109,20,227,44c235,48,355,62,677,76c252,11,288,21,324,91c19,38,21,54,16,129c-3,49-18,127-35,185c-40,138-46,197-28,283
		c28,133,107,235,224,290c49,23,70,27,147,27c82,0,96-3,159-34c89-43,169-124,221-221c35-67,40-83,40-145c0-58-6-85-37-161
		c-41-99-46-136-24-188c48-115,183-183,411-207c111-12,185-8,450,22c247,28,225,20,225,78c0,27-12,132-27,233c-22,152-26,219-26,398
		c0,188,2,225,21,292c42,152,109,242,204,274c68,22,195,15,347-20c222-52,333-44,418,29c128,109,121,269-16,406
		c-71,70-136,106-213,118c-68,11-125-2-237-53c-126-58-173-70-244-62c-100,10-176,56-213,129c-55,106-78,359-64,722
		c5,132,9,268,10,301v62l-112,21c-161,29-253,40-413,46C5489,5667.2,5453,5665.2,5399,5650.2z"/>
	<path d="M10015,5603.2c-22-8-108-23-191-34s-168-26-188-35c-34-14-36-18-36-60c0-25,9-150,21-278c24-266,22-501-5-601
		c-51-186-180-316-346-347c-62-12-120-4-238,34c-120,38-162,41-214,18c-80-35-128-121-128-226c0-198,149-387,285-362
		c18,4,64,27,101,52c87,57,158,79,254,78c193-1,293-97,340-324c29-142,43-400,35-662c-4-126-4-228,0-228s42,33,84,73
		c42,39,135,124,206,188c143,128,230,216,500,509c544,589,863,981,1145,1404c189,284,412,678,394,696c-19,19-181,31-479,37
		c-344,6-395,1-467-47c-23-16-54-46-68-66c-32-47-33-122-5-246c19-84,19-89,2-160c-37-153-132-293-237-349c-38-20-59-24-140-24
		c-86,0-101,3-162,32c-119,56-195,157-220,293c-16,86,0,160,68,302c52,108,56,123,51,171c-4,46-10,56-50,92
		C10253,5601.2,10102,5635.2,10015,5603.2z"/>
	<path d="M4608,3463.2c-137-73-166-206-103-475c47-201,37-321-37-405c-64-73-113-86-363-95c-226-9-244-11-560-70
		c-115-21-243-44-282-50c-40-7-73-15-73-20c0-19,52-69,154-145c61-46,206-163,321-262c294-249,1250-996,1650-1288
		c82-61,258-191,390-290s276-205,320-236c91-63,206-132,211-126c11,11,114,783,114,852c0,213-83,326-230,312c-32-3-106-24-175-52
		c-105-41-130-47-195-47c-163,0-318,102-403,267c-29,54-32,69-32,150c0,83,3,96,34,160c88,178,313,312,481,286c25-4,87-27,138-50
		c80-37,101-43,141-39c58,6,100,35,132,91c28,50,38,183,21,287c-19,119-62,364-65,365c-1,1-62-6-135-16c-541-72-830-31-1003,142
		c-109,109-126,192-71,359c17,52,33,109,37,126C5059,3368.2,4774,3552.2,4608,3463.2z"/>
	<path d="M8300,2658.2c-244-26-306-44-353-99c-45-54-44-84,7-233c54-155,57-206,22-302c-45-125-138-235-247-292c-48-26-64-29-149-29
		c-87,0-101,3-160,32c-86,43-149,99-203,181c-64,95-90,179-84,265c4,58,13,86,60,180c74,147,77,161,41,198c-15,16-52,38-82,49
		c-70,27-234,43-347,35c-131-9-426-35-452-41c-30-6-30-16,8-248c52-319,36-450-66-552c-97-97-195-108-345-39c-65,30-101,40-152,43
		c-62,4-75,1-143-31c-142-68-233-193-222-304c10-97,73-174,187-231c82-40,169-36,320,14c100,33,128,38,210,38c73,1,103-3,127-17
		c137-74,187-200,186-467c0-164-12-269-67-592c-18-109-29-198-25-198c29,0,208,123,545,375c103,77,322,241,488,365s461,351,656,505
		c195,153,456,359,580,456s299,241,390,320s215,183,275,232c121,99,179,149,189,165c10,17-39,38-165,70c-63,16-184,48-269,70
		C8762,2654.2,8513,2680.2,8300,2658.2z"/>
</g>
</svg>
