<?xml version="1.0" encoding="utf-8"?>
<!-- Generator: Adobe Illustrator 24.3.0, SVG Export Plug-In . SVG Version: 6.00 Build 0)  -->
<svg version="1.1" id="Слой_1" xmlns="http://www.w3.org/2000/svg" xmlns:xlink="http://www.w3.org/1999/xlink" x="0px" y="0px"
	 viewBox="0 0 423 318" style="enable-background:new 0 0 423 318;" xml:space="preserve">
<path d="M78.87,0.32c-3.6,0.2-19.1,1.5-34.5,2.9s-29.9,2.5-32.3,2.5c-5.1,0-5.5,0.8-7.1,12.6c-3.5,25.9-5.3,49.6-4.8,61.4
	c1.1,26.9,4.7,60.3,8.8,81.5c8.7,45.6,14.9,66.4,32.5,108.7c11.5,27.9,12,28.8,14.9,29.2c11.5,1.8,25.1,4.4,45,8.6
	c30.2,6.5,40,7.7,50.7,6.2c4.5-0.7,9.2-1.9,10.5-2.8c5.3-3.4,5.4-11.5,0.4-27.8c-6.1-19.6-2.8-37.5,9.4-50.5
	c10.5-11.3,24.5-13,40.5-5c13.6,6.9,22.7,19.2,23.7,32.3c0.7,7.7-0.6,13.2-5.4,24.1c-4.4,10.1-5.3,17.7-2.4,22.1
	c2.7,4.3,7.6,7.8,14.1,10c8.8,3,39.2,2.4,66-1.3l20.5-2.8l-0.3-4.5c-0.2-2.5-1.3-12.6-2.5-22.5c-2.9-24.3-3.1-60.7-0.4-70.4
	c2.6-9.2,6.9-17.2,12.1-22.3c6.2-6.2,10.8-8.3,18.2-8.3c5.5,0,7.4,0.7,18.6,6.3c10.3,5.1,13.3,6.2,17.4,6.2
	c6.7,0,13.8-3.7,20.2-10.4c10.5-11,13-21.8,7.9-33c-3.2-7-9.6-13.8-15.5-16.6c-7.1-3.4-12.5-2.5-27,4.4c-17.9,8.5-23.5,8.7-32.1,1
	c-8.5-7.7-12.3-17.8-14-37.2c-1.5-16.2,0.1-36.5,6-80.1c1-7.9,1.9-15.6,1.9-17v-2.7l-20.7-1.8c-61.8-5.3-88.7-2-101.7,12.5
	c-9,10-8.7,19.8,1.3,39.8c4.9,9.7,6.5,16.6,5.9,25.1c-1.7,23.6-26.7,41.6-49.4,35.5c-11.6-3.1-22.6-11.9-27.7-22.2
	c-6.5-12.8-6.2-23.1,1.3-45.1c8.7-25.8,7-34.7-7.9-42.2C131.07,1.72,103.07-1.08,78.87,0.32z"/>
</svg>
